# Blender v2.78 (sub 0) OBJ File: 'chair.blend'
# www.blender.org
mtllib chair.mtl
o Cube
v 1.000000 4.251213 -1.000000
v 1.000000 4.251213 1.000000
v -1.000000 4.251213 1.000000
v -1.000000 4.251213 -1.000000
v 1.000000 4.411890 -0.999999
v 0.999999 4.411890 1.000001
v -1.000000 4.411890 1.000000
v -1.000000 4.411890 -1.000000
v 1.000000 4.251213 -0.773539
v 1.000000 4.251213 0.766320
v 0.766426 4.251213 -1.000000
v -0.785540 4.251213 -1.000000
v 0.766425 4.251213 1.000000
v -0.785540 4.251213 1.000000
v -1.000000 4.251213 0.766320
v -1.000000 4.251213 -0.777362
v 0.766425 4.251213 -0.773539
v -0.785540 4.251213 -0.773540
v 0.766425 4.251213 0.766320
v -0.785540 4.251213 0.766320
v 1.000000 2.542024 0.766320
v 1.000000 2.542024 1.000000
v -0.785540 2.542024 -1.000000
v -1.000000 2.542024 -1.000000
v -0.785540 2.542024 1.000000
v -1.000000 2.542024 1.000000
v -1.000000 2.542024 -0.777362
v 1.000000 2.542024 -1.000000
v 1.000000 2.542024 -0.773539
v 0.766426 2.542024 -1.000000
v 0.766425 2.542024 1.000000
v -1.000000 2.542024 0.766320
v -0.785540 2.542024 -0.773540
v 0.766425 2.542024 -0.773539
v -0.785540 2.542024 0.766320
v 0.766425 2.542024 0.766320
v 1.000000 4.411890 -0.788394
v 1.000000 4.411890 0.333334
v 0.768918 4.411890 -1.000000
v -0.782418 4.411890 -1.000000
v 0.768917 4.411890 1.000000
v -0.782419 4.411890 1.000000
v -1.000000 4.411890 0.333333
v -1.000000 4.411890 -0.788395
v 0.768918 4.411890 -0.788394
v 0.768918 4.411890 0.333334
v -0.782419 4.411890 -0.788394
v -0.782419 4.411890 0.333333
v -0.782418 6.335932 -1.000000
v -1.000000 6.335932 -1.000000
v -1.000000 6.335932 -0.788395
v 1.000000 6.335932 -0.999999
v 1.000000 6.335932 -0.788394
v 0.768918 6.335932 -1.000000
v 0.768918 6.335932 -0.788394
v -0.782419 6.335932 -0.788394
v -1.000000 6.149414 -1.000000
v -1.000000 6.155696 -0.788395
v 0.768918 6.149414 -1.000000
v 1.000000 6.149414 -0.999999
v -0.782418 6.149414 -1.000000
v 1.000000 6.149414 -0.788394
v -0.782419 6.155696 -0.788394
v 0.768918 6.149414 -0.788394
v -1.000000 5.059845 -1.000000
v 1.000000 5.059845 -0.999999
v -0.782418 5.059845 -1.000000
v 1.000000 5.059845 -0.788394
v -1.000000 5.059845 -0.788395
v 0.768918 5.059845 -1.000000
v -0.782419 5.059845 -0.788394
v 0.768918 5.059845 -0.788394
vt 0.8310 0.2727
vt 0.7937 0.2727
vt 0.7937 0.0003
vt 0.8310 0.0003
vt 0.4346 0.4259
vt 0.3999 0.4259
vt 0.3999 0.3196
vt 0.4346 0.3196
vt 0.3568 0.3760
vt 0.3773 0.3965
vt 0.3322 0.4193
vt 0.1054 0.3777
vt 0.0003 0.3407
vt 0.0146 0.3258
vt 0.0455 0.3357
vt 0.3219 0.3845
vt 0.0003 0.3083
vt 0.0219 0.1838
vt 0.0104 0.0506
vt 0.0561 0.0896
vt 0.0363 0.1873
vt 0.0169 0.3079
vt 0.2047 0.0311
vt 0.3025 0.0030
vt 0.3332 0.0003
vt 0.3216 0.0172
vt 0.3030 0.0214
vt 0.1627 0.0574
vt 0.3648 0.3402
vt 0.3388 0.0495
vt 0.3666 0.0352
vt 0.3993 0.3483
vt 0.7565 0.2727
vt 0.7193 0.2727
vt 0.7193 0.0003
vt 0.7565 0.0003
vt 0.6826 0.0345
vt 0.4372 0.0345
vt 0.4372 0.0003
vt 0.6832 0.0003
vt 0.7926 0.5457
vt 0.7554 0.5457
vt 0.7554 0.2733
vt 0.7926 0.2733
vt 0.7187 0.2818
vt 0.6826 0.2818
vt 0.7187 0.0345
vt 0.6826 0.3191
vt 0.4372 0.3191
vt 0.4372 0.2818
vt 0.8659 0.5457
vt 0.8287 0.5457
vt 0.8287 0.2733
vt 0.8659 0.2733
vt 0.3999 0.2818
vt 0.3999 0.0345
vt 0.3913 0.5286
vt 0.3541 0.5286
vt 0.3541 0.4945
vt 0.3913 0.4945
vt 0.3902 0.5634
vt 0.3541 0.5634
vt 0.3547 0.5292
vt 0.3902 0.5292
vt 0.3913 0.4578
vt 0.3913 0.4939
vt 0.3541 0.4939
vt 0.3541 0.4578
vt 0.3913 0.4572
vt 0.3541 0.4572
vt 0.3541 0.4199
vt 0.3913 0.4199
vt 0.0717 0.9997
vt 0.0375 0.9997
vt 0.0375 0.7273
vt 0.0717 0.7273
vt 0.2140 0.9997
vt 0.1798 0.9997
vt 0.1798 0.7273
vt 0.2140 0.7273
vt 0.8682 0.2727
vt 0.8682 0.0003
vt 0.0003 0.9997
vt 0.0003 0.7273
vt 0.1431 0.9997
vt 0.1090 0.9997
vt 0.1090 0.7273
vt 0.1431 0.7273
vt 0.7193 0.5457
vt 0.7193 0.2733
vt 0.1437 0.9997
vt 0.1437 0.7273
vt 0.2495 0.9997
vt 0.2495 0.7273
vt 0.2837 0.9997
vt 0.2837 0.7273
vt 0.7187 0.4259
vt 0.6818 0.4259
vt 0.6818 0.3196
vt 0.7187 0.3196
vt 0.0351 0.4497
vt 0.0004 0.4497
vt 0.0004 0.4199
vt 0.0351 0.4200
vt 0.7187 0.6047
vt 0.6818 0.6047
vt 0.3191 0.4498
vt 0.2823 0.4498
vt 0.2823 0.4200
vt 0.3192 0.4201
vt 0.4346 0.6047
vt 0.3198 0.6969
vt 0.3535 0.6979
vt 0.3535 0.7266
vt 0.3198 0.7266
vt 0.3999 0.6047
vt 0.9029 0.3069
vt 0.9030 0.3438
vt 0.8693 0.3438
vt 0.8692 0.3070
vt 0.8693 0.3735
vt 0.9030 0.3735
vt 0.3198 0.7613
vt 0.3535 0.7613
vt 0.8692 0.2773
vt 0.9029 0.2772
vt 0.3999 0.9169
vt 0.4346 0.9169
vt 0.4346 0.9456
vt 0.3999 0.9456
vt 0.9025 0.6505
vt 0.8688 0.6495
vt 0.8696 0.6208
vt 0.9034 0.6207
vt 0.6818 0.9159
vt 0.7187 0.9159
vt 0.7187 0.9456
vt 0.6818 0.9456
vt 0.2823 0.6234
vt 0.0350 0.6233
vt 0.6818 0.7423
vt 0.7187 0.7423
vt 0.4346 0.7423
vt 0.3999 0.7423
vt 0.8689 0.1036
vt 0.9027 0.1036
vt 0.3198 0.5232
vt 0.3535 0.5232
vt 0.3191 0.6234
vt 0.0003 0.6233
vt 0.0350 0.7266
vt 0.0003 0.7266
vt 0.3191 0.7267
vt 0.2822 0.7267
vt 0.3198 0.4199
vt 0.3535 0.4199
vt 0.8688 0.0003
vt 0.9025 0.0003
vt 0.3999 0.6390
vt 0.4346 0.6390
vt 0.7504 0.9800
vt 0.5032 0.9800
vt 0.5032 0.9462
vt 0.7504 0.9462
vt 0.6818 0.6390
vt 0.7187 0.6390
vt 0.8537 0.9462
vt 0.8537 0.9800
vt 0.3999 0.9800
vt 0.3999 0.9462
vt 0.6818 0.6384
vt 0.4346 0.6384
vn -1.0000 0.0000 0.0000
vn 0.0000 1.0000 0.0000
vn 1.0000 0.0000 0.0000
vn -0.0000 -0.0000 1.0000
vn 0.0000 0.0000 -1.0000
vn 0.0000 -1.0000 0.0000
vn -0.0178 0.0000 0.9998
vn 0.0020 0.9999 -0.0148
usemtl Material
s off
f 13/1/1 19/2/1 36/3/1 31/4/1
f 48/5/2 43/6/2 7/7/2 42/8/2
f 1/9/3 5/10/3 37/11/3 38/12/3 6/13/3 2/14/3 10/15/3 9/16/3
f 2/14/4 6/13/4 41/17/4 42/18/4 7/19/4 3/20/4 14/21/4 13/22/4
f 3/20/1 7/19/1 43/23/1 44/24/1 8/25/1 4/26/1 16/27/1 15/28/1
f 5/10/5 1/9/5 11/29/5 12/30/5 4/26/5 8/25/5 40/31/5 39/32/5
f 10/33/3 2/34/3 22/35/3 21/36/3
f 18/37/6 20/38/6 15/39/6 16/40/6
f 11/41/5 1/42/5 28/43/5 30/44/5
f 11/45/6 17/46/6 18/37/6 12/47/6
f 9/48/6 10/49/6 19/50/6 17/46/6
f 17/46/6 19/50/6 20/38/6 18/37/6
f 9/51/4 17/52/4 34/53/4 29/54/4
f 19/50/6 13/55/6 14/56/6 20/38/6
f 35/57/6 25/58/6 26/59/6 32/60/6
f 23/61/6 33/62/6 27/63/6 24/64/6
f 28/65/6 29/66/6 34/67/6 30/68/6
f 21/69/6 22/70/6 31/71/6 36/72/6
f 15/73/5 20/74/5 35/75/5 32/76/5
f 4/77/5 12/78/5 23/79/5 24/80/5
f 2/81/4 13/1/4 31/4/4 22/82/4
f 20/74/3 14/83/3 25/84/3 35/75/3
f 19/2/5 10/33/5 21/36/5 36/3/5
f 14/85/4 3/86/4 26/87/4 25/88/4
f 3/86/1 15/73/1 32/76/1 26/87/1
f 17/52/1 11/41/1 30/44/1 34/53/1
f 1/42/3 9/89/3 29/90/3 28/43/3
f 12/78/3 18/91/3 33/92/3 23/79/3
f 16/93/1 4/77/1 24/80/1 27/94/1
f 18/95/7 16/93/7 27/94/7 33/96/7
f 38/97/2 46/98/2 41/99/2 6/100/2
f 46/98/2 48/5/2 42/8/2 41/99/2
f 61/101/5 57/102/5 50/103/5 49/104/5
f 37/105/2 45/106/2 46/98/2 38/97/2
f 60/107/5 59/108/5 54/109/5 52/110/5
f 45/106/2 47/111/2 48/5/2 46/98/2
f 57/112/1 58/113/1 51/114/1 50/115/1
f 47/111/2 44/116/2 43/6/2 48/5/2
f 52/117/2 54/118/2 55/119/2 53/120/2
f 64/121/1 55/119/1 54/118/1 59/122/1
f 49/123/2 50/115/2 51/114/2 56/124/2
f 62/125/3 60/126/3 52/117/3 53/120/3
f 58/127/4 63/128/4 56/129/4 51/130/4
f 49/131/3 56/132/3 63/133/3 61/134/3
f 64/135/4 62/136/4 53/137/4 55/138/4
f 59/122/8 61/134/8 63/133/8 64/121/8
f 70/139/5 67/140/5 61/101/5 59/108/5
f 72/141/4 68/142/4 62/136/4 64/135/4
f 71/143/4 72/141/4 64/135/4 63/128/4
f 69/144/4 71/143/4 63/128/4 58/127/4
f 68/145/3 66/146/3 60/126/3 62/125/3
f 65/147/1 69/148/1 58/113/1 57/112/1
f 66/149/5 70/139/5 59/108/5 60/107/5
f 67/140/5 65/150/5 57/102/5 61/101/5
f 40/151/5 8/152/5 65/150/5 67/140/5
f 5/153/5 39/154/5 70/139/5 66/149/5
f 8/155/1 44/156/1 69/148/1 65/147/1
f 37/157/3 5/158/3 66/146/3 68/145/3
f 44/159/4 47/160/4 71/143/4 69/144/4
f 72/161/6 71/162/6 67/163/6 70/164/6
f 45/165/4 37/166/4 68/142/4 72/141/4
f 70/164/1 39/167/1 45/168/1 72/161/1
f 67/163/3 71/162/3 47/169/3 40/170/3
f 39/171/2 40/172/2 47/111/2 45/106/2
