# Blender v2.78 (sub 0) OBJ File: 'projectile.blend'
# www.blender.org
mtllib projectile.mtl
o Cube
v -0.281201 -0.188004 0.691061
v 0.318955 0.239863 -0.242784
v 0.238655 -0.162904 0.863355
v -0.014067 -0.002481 1.737382
v -0.330578 0.208727 -0.253896
v 0.021884 -0.336173 -0.296793
v -0.038458 -0.093605 1.719607
v -0.021843 0.312417 0.732673
v 0.030703 -0.065513 1.748885
v -0.005285 -0.095701 1.767320
v -0.213364 -0.411844 0.071563
v 0.241366 -0.390001 0.120192
v -0.277974 0.119600 0.833303
v 0.237489 0.143211 0.887450
v -0.477711 -0.003169 0.103735
v -0.264336 0.409955 0.141143
v -0.231520 -0.102804 -0.413016
v 0.464169 0.042027 0.160699
v 0.255629 -0.079452 -0.404682
v 0.222813 0.433307 0.149477
v -0.008717 0.329223 -0.372510
v -0.003013 -0.319402 0.852037
v -0.050055 -0.032669 1.755817
v -0.115026 -0.108087 1.422078
v 0.027967 -0.023878 1.768654
v 0.048515 -0.149085 1.473778
v -0.016962 0.089290 1.434930
v 0.092932 -0.092572 1.479103
v 0.013402 -0.421989 0.324171
v -0.009741 -0.049710 1.773477
v -0.382940 0.196934 0.349210
v -0.344498 -0.195091 -0.121249
v 0.362796 -0.161165 -0.090994
v 0.351346 0.231645 0.381917
v -0.018611 0.436548 -0.062617
v 0.005701 0.052828 -0.440818
v -0.021899 -0.206865 1.301950
v -0.127140 0.020283 1.462436
v 0.097140 0.030704 1.486358
v 0.034861 -0.114157 1.616551
vt 0.3041 0.0890
vt 0.4171 0.1891
vt 0.3490 0.2069
vt 0.2334 0.1477
vt 0.1254 0.0849
vt 0.1054 0.0382
vt 0.1005 0.0001
vt 0.2847 0.0001
vt 0.4247 0.0146
vt 0.4797 0.0894
vt 0.4815 0.1740
vt 0.8930 0.5310
vt 0.9781 0.4486
vt 0.9999 0.5416
vt 0.9346 0.6107
vt 0.8569 0.6278
vt 0.8095 0.5639
vt 0.8113 0.4820
vt 0.8668 0.4392
vt 0.9215 0.3882
vt 0.1874 0.2129
vt 0.3703 0.2716
vt 0.4084 0.3471
vt 0.3172 0.3847
vt 0.9999 0.2453
vt 0.9184 0.2555
vt 0.9096 0.0895
vt 0.9412 0.0829
vt 0.0575 0.0909
vt 0.0363 0.0536
vt 0.0716 0.0764
vt 0.8915 0.0235
vt 0.8847 0.0115
vt 0.8995 0.0090
vt 0.9030 0.0203
vt 0.8737 0.1004
vt 0.8431 0.0806
vt 0.7142 0.5302
vt 0.6467 0.4268
vt 0.7158 0.3673
vt 0.7626 0.4295
vt 0.5897 0.1598
vt 0.6465 0.2515
vt 0.5672 0.2809
vt 0.5250 0.2224
vt 0.4677 0.2606
vt 0.5069 0.3388
vt 0.0200 0.0214
vt 0.0133 0.0024
vt 0.0039 0.0233
vt 0.0022 0.0101
vt 0.8353 0.2913
vt 0.7632 0.2401
vt 0.0001 0.0368
vt 0.9140 0.0164
vt 0.9119 0.0001
vn -0.4253 -0.8783 0.2186
vn -0.5320 -0.8227 0.2004
vn -0.9680 -0.1135 0.2240
vn -0.9636 -0.0177 0.2668
vn -0.8351 -0.5457 0.0698
vn 0.9397 -0.0263 -0.3410
vn 0.3700 0.3083 -0.8764
vn 0.3397 0.8820 -0.3265
vn 0.8510 0.5239 -0.0372
vn 0.4426 -0.8663 0.2314
vn 0.8787 -0.4638 0.1134
vn 0.9548 0.0775 0.2870
vn 0.9733 -0.0236 0.2284
vn 0.7514 -0.6135 0.2430
vn 0.4744 -0.8583 0.1958
vn -0.1954 0.5841 0.7878
vn 0.3252 0.9080 0.2641
vn -0.4822 0.8343 0.2674
vn -0.8839 0.4627 -0.0677
vn -0.4112 0.8467 -0.3377
vn -0.3676 0.2729 -0.8890
vn -0.9055 -0.1039 -0.4114
vn 0.5972 -0.6973 -0.3963
vn 0.0620 -0.9888 -0.1358
vn -0.5008 -0.7382 -0.4520
vn 0.0326 -0.3458 -0.9377
vn -0.9489 -0.2130 0.2329
vn -0.3063 -0.9218 0.2378
vn -0.0327 -0.9844 0.1730
vn -0.6709 -0.3580 0.6494
vn -0.5002 0.8264 0.2586
vn 0.3896 0.8812 0.2679
vn 0.4733 0.8230 0.3141
vn -0.0499 0.9868 0.1538
vn -0.5706 0.7612 0.3081
vn 0.7499 -0.6130 0.2489
vn 0.9723 -0.0462 0.2291
vn 0.4422 -0.2209 0.8693
usemtl Material
s off
f 1/1/1 11/2/1 29/3/1 22/4/1
f 1/1/2 22/4/2 37/5/2 24/6/2
f 1/1/3 24/6/3 38/7/3 13/8/3
f 1/1/4 13/8/4 31/9/4 15/10/4
f 1/1/5 15/10/5 32/11/5 11/2/5
f 2/12/6 18/13/6 33/14/6 19/15/6
f 2/12/7 19/15/7 36/16/7 21/17/7
f 2/12/8 21/17/8 35/18/8 20/19/8
f 2/12/9 20/19/9 34/20/9 18/13/9
f 3/21/10 22/4/10 29/3/10 12/22/10
f 3/21/11 12/22/11 33/23/11 18/24/11
f 3/25/12 18/13/12 34/20/12 14/26/12
f 3/25/13 14/26/13 39/27/13 28/28/13
f 3/21/14 28/29/14 40/30/14 26/31/14
f 3/21/15 26/31/15 37/5/15 22/4/15
f 4/32/16 23/33/16 30/34/16 25/35/16
f 4/32/17 25/35/17 39/27/17 27/36/17
f 4/32/18 27/36/18 38/37/18 23/33/18
f 5/38/19 15/39/19 31/40/19 16/41/19
f 5/38/20 16/41/20 35/18/20 21/17/20
f 5/42/21 21/43/21 36/44/21 17/45/21
f 5/42/22 17/45/22 32/11/22 15/10/22
f 6/46/23 19/47/23 33/23/23 12/22/23
f 6/46/24 12/22/24 29/3/24 11/2/24
f 6/46/25 11/2/25 32/11/25 17/45/25
f 6/46/26 17/45/26 36/44/26 19/47/26
f 7/48/27 23/49/27 38/7/27 24/6/27
f 7/48/28 24/6/28 37/5/28 26/31/28
f 7/48/29 26/31/29 40/30/29 10/50/29
f 7/48/30 10/50/30 30/51/30 23/49/30
f 8/52/31 13/53/31 38/37/31 27/36/31
f 8/52/32 27/36/32 39/27/32 14/26/32
f 8/52/33 14/26/33 34/20/33 20/19/33
f 8/52/34 20/19/34 35/18/34 16/41/34
f 8/52/35 16/41/35 31/40/35 13/53/35
f 9/54/36 10/50/36 40/30/36 28/29/36
f 9/55/37 28/28/37 39/27/37 25/35/37
f 9/55/38 25/35/38 30/34/38 10/56/38
