# Blender v2.78 (sub 0) OBJ File: 'table.blend'
# www.blender.org
mtllib table.mtl
o Cube
v 1.603559 4.246372 -3.046103
v 1.603559 4.246372 3.725178
v -1.805636 4.246372 3.725178
v -1.805635 4.246372 -3.046103
v 1.701726 4.408860 -3.089241
v 1.701725 4.408860 3.768317
v -1.903802 4.408860 3.768316
v -1.903802 4.408860 -3.089241
v 1.701725 4.356258 -3.089241
v 1.701725 4.356258 3.768316
v -1.903802 4.356258 3.768316
v -1.903802 4.356258 -3.089241
v 1.762735 4.246372 -3.205279
v 1.762735 4.246372 3.884354
v -1.964811 4.246372 -3.205280
v -1.964812 4.246372 3.884354
v 1.603559 4.074820 -3.046103
v 1.603559 4.074820 3.725178
v -1.805635 4.074820 -3.046103
v -1.805636 4.074820 3.725178
v 1.293632 4.074820 -3.046103
v -1.495708 4.074820 -3.046103
v 1.293632 4.074820 3.725178
v -1.495709 4.074820 3.725178
v -1.805636 4.074820 3.417392
v -1.495709 4.074820 3.417393
v 1.603559 4.074820 3.417393
v 1.293632 4.074820 3.417393
v 1.603559 4.074820 -2.738318
v 1.293632 4.074820 -2.738318
v -1.805635 4.074820 -2.738318
v -1.495708 4.074820 -2.738318
v 1.603559 1.951727 3.417393
v 1.603559 1.951727 3.725178
v -1.805635 1.951727 -3.046103
v -1.805636 1.951727 3.725178
v -1.805635 1.951727 -2.738318
v 1.293632 1.951727 -3.046103
v 1.293632 1.951727 3.725178
v 1.293632 1.951727 -2.738318
v -1.482511 1.932107 -2.738318
v -1.495708 1.951727 -3.046103
v -1.495709 1.951727 3.725178
v -1.805636 1.951727 3.417392
v -1.495709 1.951727 3.417393
v 1.293632 1.951727 3.417393
v 1.603559 1.951727 -3.046103
v 1.603559 1.951727 -2.738318
vt 0.3158 0.3975
vt 0.6092 0.3975
vt 0.6092 0.9556
vt 0.3158 0.9556
vt 0.6440 0.3990
vt 0.6514 0.4061
vt 0.6537 0.9003
vt 0.6433 0.9069
vt 0.9738 0.8739
vt 0.9813 0.8809
vt 0.9716 0.3797
vt 0.9820 0.3731
vt 0.6345 0.3870
vt 0.9908 0.3587
vt 0.9908 0.8930
vt 0.6345 0.9212
vt 0.0366 0.3574
vt 0.6409 0.3569
vt 0.6540 0.3698
vt 0.0235 0.3698
vt 0.6144 0.0715
vt 0.6260 0.0599
vt 0.0325 0.0516
vt 0.0201 0.0383
vt 0.6978 0.8635
vt 0.6978 0.4862
vt 0.7528 0.4862
vt 0.7528 0.8635
vt 0.7529 0.4862
vt 0.8076 0.4862
vt 0.8076 0.8635
vt 0.7529 0.8635
vt 0.6978 0.4862
vt 0.6978 0.8635
vt 0.8627 0.4862
vt 0.8627 0.8635
vt 0.8075 0.8635
vt 0.8075 0.4862
vt 0.6978 0.4315
vt 0.7528 0.4315
vt 0.6978 0.4862
vt 0.6978 0.4315
vt 0.7529 0.4315
vt 0.7529 0.4862
vt 0.8076 0.8635
vt 0.7529 0.8635
vt 0.8076 0.4862
vt 0.6978 0.8635
vt 0.6978 0.4862
vt 0.7529 0.4862
vt 0.7528 0.8635
vt 0.6978 0.8635
vt 0.9174 0.8635
vt 0.9174 0.4862
vt 0.8075 0.8635
vt 0.8076 0.4862
vt 0.9174 0.8635
vt 0.8626 0.8635
vt 0.8626 0.4862
vt 0.9173 0.4862
vt 0.6011 0.0848
vt 0.5797 0.0836
vt 0.0723 0.0671
vt 0.0517 0.0704
vt 0.6978 0.4315
vt 0.7529 0.4315
vt 0.8627 0.8635
vt 0.8626 0.4862
vt 0.7529 0.4315
vt 0.6978 0.4315
vt 0.8626 0.4862
vt 0.8626 0.8635
vt 0.9173 0.4862
vt 0.9173 0.8635
vt 0.2898 0.4258
vt 0.2898 0.9267
vt 0.2645 0.9267
vt 0.2645 0.4258
vt 0.0123 0.9267
vt 0.0123 0.4258
vt 0.0376 0.4258
vt 0.0376 0.9267
vt 0.2645 0.4008
vt 0.0376 0.4008
vt 0.2645 0.9518
vt 0.0376 0.9518
vt 0.0472 0.0936
vt 0.0475 0.3193
vt 0.0521 0.3424
vt 0.0747 0.3430
vt 0.5902 0.3417
vt 0.6193 0.3348
vt 0.6130 0.2071
vt 0.6057 0.1218
vt 0.9173 0.8635
vt 0.9173 0.4862
vn 0.0000 1.0000 0.0000
vn 1.0000 0.0000 0.0000
vn -0.0000 -0.0000 1.0000
vn -1.0000 0.0000 -0.0000
vn 0.0000 0.7261 -0.6876
vn 0.0000 0.0000 -1.0000
vn -0.8743 0.4854 -0.0000
vn -0.0000 0.7261 0.6876
vn 0.8743 0.4854 0.0000
vn 0.0000 -1.0000 0.0000
vn -0.0310 -0.9990 -0.0312
vn 0.9998 0.0031 -0.0213
usemtl Table
s off
f 5/1/1 8/2/1 7/3/1 6/4/1
f 9/5/2 5/6/2 6/7/2 10/8/2
f 10/8/3 6/7/3 7/9/3 11/10/3
f 11/10/4 7/9/4 8/11/4 12/12/4
f 9/5/5 13/13/5 15/14/5 12/12/5
f 5/6/6 9/5/6 12/12/6 8/11/6
f 16/15/7 11/10/7 12/12/7 15/14/7
f 14/16/8 10/8/8 11/10/8 16/15/8
f 13/13/9 9/5/9 10/8/9 14/16/9
f 2/17/10 1/18/10 13/19/10 14/20/10
f 1/18/10 4/21/10 15/22/10 13/19/10
f 3/23/10 2/17/10 14/20/10 16/24/10
f 4/21/10 3/23/10 16/24/10 15/22/10
f 22/25/6 42/26/6 35/27/6 19/28/6
f 34/29/2 33/30/2 27/31/2 18/32/2
f 39/33/3 34/29/3 18/32/3 23/34/3
f 41/35/3 32/36/3 31/37/3 37/38/3
f 35/27/11 42/26/11 41/39/11 37/40/11
f 47/41/10 48/42/10 40/43/10 38/44/10
f 30/45/4 21/46/4 38/44/4 40/47/4
f 20/48/3 36/49/3 43/50/3 24/51/3
f 47/41/6 38/44/6 21/46/6 17/52/6
f 22/53/12 32/36/12 41/35/12 42/54/12
f 26/55/2 24/51/2 43/50/2 45/56/2
f 23/57/4 28/58/4 46/59/4 39/60/4
f 4/21/4 19/61/4 31/62/4 25/63/4 20/64/4 3/23/4
f 44/65/10 45/66/10 43/50/10 36/49/10
f 29/67/3 30/45/3 40/47/3 48/68/3
f 33/69/10 34/29/10 39/33/10 46/70/10
f 46/59/6 28/58/6 27/31/6 33/30/6
f 44/71/6 25/72/6 26/55/6 45/56/6
f 47/73/2 17/74/2 29/67/2 48/68/2
f 29/75/10 27/76/10 28/77/10 30/78/10
f 25/79/10 31/80/10 32/81/10 26/82/10
f 21/83/10 30/78/10 32/81/10 22/84/10
f 26/82/10 28/77/10 23/85/10 24/86/10
f 28/77/10 26/82/10 32/81/10 30/78/10
f 2/17/3 3/23/3 20/64/3 24/87/3 23/88/3 18/89/3
f 2/17/2 18/89/2 27/90/2 29/91/2 17/92/2 1/18/2
f 4/21/6 1/18/6 17/92/6 21/93/6 22/94/6 19/61/6
f 31/37/4 19/28/4 35/27/4 37/38/4
f 20/95/4 25/72/4 44/71/4 36/96/4
